{"title":"Dead Calm 1989 DVDRip Xvid fasamoo LKRG","uid":5844211,"size":738004555,"categoryP":"video","categoryS":"movies","magnet":"?xt=urn:btih:e4563a9c9151ce659bd07301d0ff2827bac73764&amp;dn=Dead+Calm+1989+DVDRip+Xvid+fasamoo+LKRG&amp;tr=udp%3A%2F%2Ftracker.openbittorrent.com%3A80&amp;tr=udp%3A%2F%2Fopen.demonii.com%3A1337&amp;tr=udp%3A%2F%2Ftracker.coppersurfer.tk%3A6969&amp;tr=udp%3A%2F%2Fexodus.desync.com%3A6969","seeders":1,"leechers":0,"uploader":"fasamoo","files":-1,"time":1285093510,"description":"                  Dead Calm 1989 DVDRip Xvid fasamoo LKRG\n\nRIPPER Ã‚Â  Ã‚Â  Ã‚Â  Ã‚Â  Ã‚Â  Ã‚Â  Ã‚Â  Ã‚Â  Ã‚Â  Ã‚Â  Ã‚Â  Ã‚Â  Ã‚Â  : fasamoo\nFormat                           : AVI\nFormat/Info                      : Audio Video Interleave\nFile size                        : 700 MiB\nDuration                         : 1h 38mn\nOverall bit rate                 : 992 Kbps\nWriting application              : VirtualDubMod 1.5.4.1 (build 2178/release)\nWriting library                  : VirtualDubMod build 2178/release\nLanguage Ã‚Â  Ã‚Â  Ã‚Â  Ã‚Â  Ã‚Â  Ã‚Â  Ã‚Â  Ã‚Â  Ã‚Â  Ã‚Â  Ã‚Â  Ã‚Â  : English\nSubtitles                        : English(*.srt)\n                                   English;French(*.idx,*.sub)\nGenre Ã‚Â  Ã‚Â  Ã‚Â  Ã‚Â  Ã‚Â  Ã‚Â  Ã‚Â  Ã‚Â  Ã‚Â  Ã‚Â  Ã‚Â  Ã‚Â  Ã‚Â  Ã‚Â : Drama | Thriller\n\n\nVideo\nID                               : 0\nFormat                           : MPEG-4 Visual\nFormat profile                   : Advanced Simple@L5\nFormat settings, BVOP            : Yes\nFormat settings, QPel            : No\nFormat settings, GMC             : No warppoints\nFormat settings, Matrix          : Custom\nCodec ID                         : XVID\nCodec ID/Hint                    : XviD\nDuration                         : 1h 38mn\nBit rate                         : 867 Kbps\nWidth                            : 512 pixels\nHeight                           : 224 pixels\nDisplay aspect ratio             : 2.25:1\nFrame rate                       : 23.976 fps\nColor space                      : YUV\nChroma subsampling               : 4:2:0\nBit depth                        : 8 bits\nScan type                        : Progressive\nBits/(Pixel*Frame)               : 0.315\nStream size                      : 612 MiB (87%)\nWriting library                  : XviD 1.2.1 (UTC 2008-12-04)\n\nAudio\nID                               : 1\nFormat                           : MPEG Audio\nFormat version                   : Version 1\nFormat profile                   : Layer 3\nMode                             : Joint stereo\nMode extension                   : MS Stereo\nCodec ID                         : 55\nCodec ID/Hint                    : MP3\nDuration                         : 1h 36mn\nBit rate mode                    : Variable\nBit rate                         : 115 Kbps\nChannel(s)                       : 2 channels\nSampling rate                    : 48.0 KHz\nStream size                      : 79.1 MiB (11%)\nAlignment                        : Aligned on interleaves\nInterleave, duration             : 25 ms (0.59 video frame)\nInterleave, preload duration     : 502 ms\n\n                                 PLOT\n\nA mass-murderer kidnaps and seduces a young woman after leaving her husband to die on the vessel whose crew he's just slaughtered. \n\n\n\n\n\n\n\n                                 IMBD\n                     \n                   &lt;a href=&quot; http://www.imdb.com/title/tt0097162/&quot; rel=&quot;nofollow&quot; target=&quot;_NEW&quot;&gt; http://www.imdb.com/title/tt0097162/&lt;/a&gt;\n\n","torrent":{"xt":"urn:btih:e4563a9c9151ce659bd07301d0ff2827bac73764","amp;dn":"Dead+Calm+1989+DVDRip+Xvid+fasamoo+LKRG","amp;tr":["udp%3A%2F%2Ftracker.openbittorrent.com%3A80","udp%3A%2F%2Fopen.demonii.com%3A1337","udp%3A%2F%2Ftracker.coppersurfer.tk%3A6969","udp%3A%2F%2Fexodus.desync.com%3A6969"],"infoHash":"e4563a9c9151ce659bd07301d0ff2827bac73764","infoHashBuffer":{"type":"Buffer","data":[228,86,58,156,145,81,206,101,155,208,115,1,208,255,40,39,186,199,55,100]},"announce":[],"urlList":[]}}